# xmcd
#
# Track frame offsets:
#	150
#	41032
#	80312
#	130350
#	142070
#	167117
#	177400
#	184857
#	216250
#
# Disc length: 2932 seconds
#
# Revision: 1
# Processed by: cddbd v1.5.1PL0 Copyright (c) Steve Scherf et al.
# Submitted via: CDex 1.50Beta5
#
DISCID=860b7209
DTITLE=ダイアナ湯川 - コンチェルト
DYEAR=1900
DGENRE=Classical
TTITLE0=ヴァイオリン協奏曲第3番 ロ短調 作品61 第1楽章
TTITLE1=同 第2楽章
TTITLE2=同 第3楽章
TTITLE3=ハバネラAllegretto Iusinghiero
TTITLE4=同 Allegro
TTITLE5=同 Allegro non troppo
TTITLE6=序奏とロンド・カプリチオーソ 作品28 Andante(malinconico)
TTITLE7=同 Allegro ma non troppo
TTITLE8=同 Piu Allegro
EXTD=
EXTT0=
EXTT1=
EXTT2=
EXTT3=
EXTT4=
EXTT5=
EXTT6=
EXTT7=
EXTT8=
PLAYORDER=
